PathFileType	4	(X/Y/Z)	C:/Users/opensim2020/Desktop/walking_exp_matlab/subject06_walking11_run_cyclic.trc	
DataRate	CameraRate	NumFrames	NumMarkers	Units	OrigDataRate	OrigDataStartFrame	OrigNumFrames	
100.00	100.00	4	46	mm	100.00	226	66	
Frame#	Time	LKNE			RKNE			RFRM			RWRA			RWRB			RELB			RUPA			RSHO			LWRA			RFIN			RFHD			CLAV			RASI			RTHI			LSHO			LTHI			RBHD			C7			LTIB			LANK			LTOE			LBHD			RTIB			RBAK			LHEE			RANK			STRN			RHEE			RTOE			T10			LUPA			LFHD			LPSI			RPSI			LASI			LFRM			LWRB			LFIN			LELB			*39			*40			*41			*42			*43			*44			*45			
		X1	Y1	Z1	X2	Y2	Z2	X3	Y3	Z3	X4	Y4	Z4	X5	Y5	Z5	X6	Y6	Z6	X7	Y7	Z7	X8	Y8	Z8	X9	Y9	Z9	X10	Y10	Z10	X11	Y11	Z11	X12	Y12	Z12	X13	Y13	Z13	X14	Y14	Z14	X15	Y15	Z15	X16	Y16	Z16	X17	Y17	Z17	X18	Y18	Z18	X19	Y19	Z19	X20	Y20	Z20	X21	Y21	Z21	X22	Y22	Z22	X23	Y23	Z23	X24	Y24	Z24	X25	Y25	Z25	X26	Y26	Z26	X27	Y27	Z27	X28	Y28	Z28	X29	Y29	Z29	X30	Y30	Z30	X31	Y31	Z31	X32	Y32	Z32	X33	Y33	Z33	X34	Y34	Z34	X35	Y35	Z35	X36	Y36	Z36	X37	Y37	Z37	X38	Y38	Z38	X39	Y39	Z39	X40	Y40	Z40	X41	Y41	Z41	X42	Y42	Z42	X43	Y43	Z43	X44	Y44	Z44	X45	Y45	Z45	X46	Y46	Z46	

12	0.110	107.40060	-160.29419	544.74799	356.64438	-436.46271	541.30652	452.10785	-186.63902	1172.11975	331.69791	-140.81700	1230.72852	346.10645	-108.51778	1175.36694	531.03156	-248.93787	1194.37793	489.26620	-247.39934	1296.15198	350.91623	-197.46964	1443.06445	23.27567	-284.16467	1174.20081	297.23575	-63.83882	1225.17493	260.48843	-138.98259	1669.52637	192.41357	-182.16206	1390.50867	334.36646	-221.72858	975.18018	379.73471	-387.37613	660.54523	55.11713	-268.48419	1442.52734	60.54219	-233.82912	684.12006	264.49469	-271.49600	1621.47583	208.28380	-279.29553	1479.27222	134.08006	-132.84335	294.37665	188.70221	-93.43518	129.82431	203.38684	55.32395	87.05973	135.21300	-278.59750	1625.42908	352.33884	-664.22363	393.03375	312.55920	-356.96460	1331.53137	238.90059	-129.14226	123.65356	312.50580	-820.91876	297.57523	194.84952	-163.55313	1209.88452	270.69684	-854.32837	324.45679	300.24222	-808.57477	135.35164	242.38094	-360.04404	1167.59204	-31.08134	-402.14316	1335.78308	128.88309	-145.28932	1679.11816	150.02359	-375.27536	1032.83984	315.62985	-361.82425	1032.68237	124.36428	-229.66354	978.27692	-45.31080	-396.18265	1174.31067	1.49724	-308.19562	1110.63562	19.43778	-217.27946	1105.04895	-58.63761	-484.23920	1270.35095				191.86647	-242.35483	1719.29956															 
13	0.120	108.20181	-126.77839	539.28973	356.09711	-385.60587	532.89331	455.20163	-154.08641	1168.22559	333.67444	-104.11859	1220.75940	350.51462	-73.94525	1165.08496	532.14459	-217.65733	1194.89233	488.69473	-214.14854	1296.16833	349.43579	-160.69394	1440.47400	23.02947	-240.58183	1168.03210	301.46524	-26.60315	1211.71936	258.70880	-103.35197	1667.10645	191.34828	-144.57848	1387.41138	335.43796	-184.32771	973.71240	379.22165	-340.79477	653.94110	53.01729	-230.42892	1438.16003	61.65894	-199.55562	678.61884	261.83517	-235.53947	1618.06238	205.91325	-242.26672	1475.95959	136.46170	-103.18945	288.25558	191.18022	-65.44407	123.65273	200.65350	82.54435	77.94987	132.45714	-241.67365	1621.64368	351.90564	-615.46442	390.03412	310.40289	-320.38419	1329.55518	242.68629	-99.06411	118.44966	312.90891	-777.02728	302.15390	194.78326	-126.18076	1207.05164	270.71146	-811.51050	329.43362	302.26773	-762.98022	141.89392	241.79834	-322.65857	1164.44946	-34.61041	-361.49622	1328.48474	127.04169	-108.61493	1676.42529	150.03577	-336.99606	1029.58411	315.74478	-324.34763	1029.52295	124.87336	-191.42856	975.03125	-48.10540	-351.23514	1165.93799	0.98680	-262.69940	1104.74670	20.92586	-172.54535	1100.16736	-63.50614	-441.02185	1260.32568				189.19444	-206.63802	1715.92578															 
14	0.130	108.54240	-93.31570	533.31976	355.76083	-333.22012	523.26074	458.45767	-122.49346	1162.90503	336.61154	-67.02666	1209.21375	355.96735	-39.85645	1152.71167	532.74017	-187.47119	1194.64734	488.15518	-181.79520	1295.93884	347.79562	-124.30000	1437.12305	22.94700	-196.51086	1160.79211	306.66394	10.52041	1195.65820	257.21472	-67.83764	1663.54761	190.41254	-106.99845	1383.30176	336.58652	-147.16896	971.05853	378.89255	-293.59793	646.13031	51.00613	-192.22687	1432.65808	63.68482	-164.78168	673.42511	259.19019	-199.79041	1613.62476	203.38989	-205.14827	1471.64148	138.61166	-76.22895	281.37112	193.32011	-41.81755	116.29124	200.51512	104.74970	67.63537	129.81424	-204.76892	1616.97522	351.70300	-564.84308	386.08209	308.12177	-284.19302	1326.88525	245.11667	-74.37206	111.74172	313.68173	-730.40967	306.15768	194.81384	-88.69016	1202.96021	271.02438	-766.00586	333.70566	305.24603	-714.64893	147.72360	241.31805	-285.64642	1161.13123	-38.44420	-320.10434	1319.82898	125.52168	-72.02923	1672.57471	150.64317	-299.25687	1025.57324	316.35052	-287.33704	1025.40210	125.15721	-153.12415	970.98383	-50.89700	-304.89249	1155.99792	0.82379	-216.89354	1096.66223	22.56833	-126.91051	1094.17761	-68.92596	-396.52936	1248.56885				186.69447	-170.80638	1711.60889															 
15	0.140	108.58878	-59.82717	526.84949	355.68625	-279.20715	512.67889	461.87714	-91.77841	1156.19812	340.33987	-30.59142	1194.97107	362.27597	-6.68033	1138.27014	532.75745	-158.18149	1193.63782	486.82248	-150.14343	1294.82410	346.06699	-88.32753	1432.86414	22.94346	-151.46924	1152.25281	313.00360	46.76161	1176.89368	255.93791	-32.54031	1658.98267	189.65269	-69.42175	1378.15503	337.63065	-109.97344	967.17584	378.91800	-245.51674	637.34723	48.99845	-153.69247	1426.11462	66.19067	-129.03609	668.84845	256.58722	-164.15518	1608.23743	200.87540	-168.25310	1466.43030	139.63405	-51.13063	273.71817	195.01019	-22.25803	107.66898	202.94154	123.36372	56.60459	127.12316	-167.80728	1611.34326	351.90576	-512.46783	381.85025	305.61392	-247.71194	1323.23230	246.68724	-55.30501	103.70004	314.56204	-681.34192	309.65817	195.19379	-50.87246	1197.85461	271.15839	-717.64752	337.13074	308.65466	-665.82727	152.18262	240.97989	-248.61766	1157.12146	-42.74780	-278.02597	1309.76599	124.19285	-35.44028	1667.70837	151.88184	-262.09894	1020.65021	317.22391	-249.67146	1019.99506	125.35454	-114.76873	966.51624	-53.94513	-257.70096	1144.82251	0.55221	-169.61601	1088.00842	24.36305	-80.55104	1087.13867	-74.79347	-350.88800	1235.47742				184.25974	-134.98322	1706.27856															 
